@startuml
title 
Innløpet – flyt for brevkode NAV 90-00.08
end title           
[*]-->MottattType
MottattType --> AvventerJournalpostType
AvventerJournalpostType --> AvventerPersondataType
AvventerPersondataType --> KategoriseringType
KategoriseringType --> AventerArenaOppgaveType
AventerArenaOppgaveType --> AvventerFerdigstillJournalpostType
AvventerFerdigstillJournalpostType --> InnsendingFerdigstiltType
InnsendingFerdigstiltType--> [*]
note left of InnsendingFerdigstiltType
Kategorisert som: Klage
Behandlende enhet: 4450  
end note
@enduml